Coordinates
version=1
nRows=37
nColumns=11
inDegrees=yes

Units are S.I. units (second, meters, Newtons, ...)
Angles are in degrees.

endheader
time	pelvis_tilt	pelvis_tx	pelvis_ty	hip_flexion_r	knee_angle_r	ankle_angle_r	hip_flexion_l	knee_angle_l	ankle_angle_l	lumbar_extension
      1.25000000	      9.43918718	      0.58289361	      1.01617989	    -29.39009946	     -2.86838489	     11.92326676	     12.36926467	      0.59800259	     -4.32599092	    -24.88229729
      1.26666667	      9.47258466	      0.58495420	      1.01474435	    -29.76615962	     -4.67805923	     11.98281805	     12.94020389	     -2.39981107	     -4.51540612	    -24.72575599
      1.28333333	      9.63361965	      0.58641351	      1.01403153	    -29.91862422	     -7.10309607	     11.86348620	     13.15373158	     -5.08553708	     -5.28977748	    -24.77334930
      1.30000000	      9.59171063	      0.58871079	      1.01365776	    -29.81762695	     -9.57957458	     11.24813259	     13.57128294	     -7.94383988	     -5.84750530	    -24.54944179
      1.31666667	      9.70369300	      0.59156621	      1.01432608	    -29.28962923	    -13.16420364	     10.37352940	     13.59389759	    -10.51082088	     -6.15811945	    -24.42727784
      1.33333333	      9.93008686	      0.59454923	      1.01570949	    -28.41902496	    -17.51408573	      9.11528238	     13.28679599	    -12.81847472	     -6.03292019	    -24.37600258
      1.35000000	     10.31323749	      0.59742500	      1.01774545	    -27.13454175	    -22.73452523	      7.22134657	     12.59592448	    -14.81777705	     -5.51067183	    -24.41896974
      1.36666667	     10.28465886	      0.59991449	      1.01977525	    -24.72883230	    -28.86367137	      4.49012655	     12.06441191	    -16.29222238	     -4.83321300	    -24.26966463
      1.38333333	     10.17106428	      0.60181549	      1.02175012	    -21.71702066	    -35.42761217	      1.10056813	     11.38138704	    -17.30407032	     -3.86680575	    -23.92959054
      1.40000000	      9.67493746	      0.60278236	      1.02342859	    -17.92258061	    -42.01413072	     -2.71006396	     11.00369016	    -18.02371780	     -2.84146996	    -23.20485422
      1.41666667	      9.30429929	      0.60316661	      1.02550159	    -14.20248608	    -48.02506259	     -6.16059847	     10.18350074	    -18.08869523	     -1.81454404	    -22.69598211
      1.43333333	      8.92781660	      0.60232533	      1.02749172	    -10.42354332	    -53.53929199	     -8.16575854	      9.33391966	    -17.93740126	     -0.82571612	    -22.25199549
      1.45000000	      8.71441403	      0.60119440	      1.02993777	     -6.98379482	    -58.27059174	     -8.22970740	      8.23931113	    -17.61721889	      0.07635075	    -21.92790476
      1.46666667	      8.47857277	      0.60087221	      1.03293562	     -3.83966845	    -62.02497081	     -6.74893264	      6.85418416	    -16.74337668	      0.71336596	    -21.57641074
      1.48333333	      8.47779100	      0.59951735	      1.03607586	     -0.94475451	    -65.12634811	     -4.71464858	      5.13704250	    -15.55566547	      1.11501154	    -21.56788304
      1.50000000	      8.14740374	      0.59799048	      1.03828185	      2.18753249	    -67.42557157	     -2.64235389	      3.92804540	    -14.65788987	      1.61314709	    -21.19820336
      1.51666667	      8.03653137	      0.59655013	      1.04050419	      4.90182850	    -68.81951222	     -0.79394456	      2.24558304	    -13.26985927	      1.94503306	    -21.05133518
      1.53333333	      7.92737746	      0.59523103	      1.04237740	      7.45973868	    -69.37091342	      0.53330186	      0.48796795	    -11.72982639	      2.19057372	    -20.93067670
      1.55000000	      7.59786051	      0.59305069	      1.04322123	     10.18811371	    -69.23649141	      1.58727687	     -0.79995358	    -10.56265592	      2.56668091	    -20.57217615
      1.56666667	      7.54743053	      0.59154943	      1.04418164	     12.27208605	    -68.14241147	      2.36063452	     -2.56066408	     -9.12594517	      2.84486173	    -20.52436826
      1.58333333	      7.47555349	      0.58973444	      1.04464651	     14.17056136	    -66.27371249	      2.91907737	     -4.12621017	     -8.01721581	      3.25210247	    -20.43824141
      1.60000000	      7.39093244	      0.58853951	      1.04473865	     15.80335037	    -63.63887691	      3.21848905	     -5.81112216	     -6.69368933	      3.56367262	    -20.31358681
      1.61666667	      7.20683977	      0.58574106	      1.04417086	     17.36214569	    -60.29535276	      3.38687609	     -7.13241214	     -5.69310740	      3.93778780	    -20.23261825
      1.63333333	      6.82386500	      0.58376908	      1.04274531	     18.80316878	    -56.26616890	      3.54707726	     -8.19549654	     -4.89799250	      4.48630276	    -19.82228789
      1.65000000	      6.59837393	      0.58146662	      1.04124594	     19.69501401	    -51.37853871	      3.63290318	     -9.43121695	     -4.02901923	      4.92382643	    -19.62229081
      1.66666667	      6.50701115	      0.57992138	      1.03966547	     19.98252070	    -45.70694061	      3.47653854	    -10.92814335	     -2.99829344	      5.23628947	    -19.52616710
      1.68333333	      6.28882382	      0.57807748	      1.03704967	     20.21636155	    -39.58845066	      3.05989762	    -12.07026093	     -2.41090426	      5.85954921	    -19.31768305
      1.70000000	      5.87519842	      0.57717873	      1.03399145	     20.16622668	    -32.72183448	      2.56023120	    -13.13915836	     -1.68878747	      6.46822823	    -18.74507179
      1.71666667	      6.13454625	      0.57614462	      1.03162506	     19.12136435	    -25.44090687	      1.82088118	    -14.91389305	     -1.02943048	      7.20035644	    -18.98197159
      1.73333333	      6.17803156	      0.57574766	      1.02834703	     18.13813383	    -18.12207096	      1.07544386	    -16.60756404	     -0.17543356	      8.05810737	    -18.90226166
      1.75000000	      6.41281071	      0.57616445	      1.02505437	     16.82019401	    -11.00660413	      0.24661930	    -18.56256476	      0.69393201	      8.85476121	    -18.90635943
      1.76666667	      6.64958118	      0.57695590	      1.02144330	     15.60851220	     -4.78550444	     -0.43120038	    -20.46912823	      1.41847813	      9.61091373	    -18.89444903
      1.78333333	      6.88623407	      0.57816589	      1.01773259	     14.61316921	      0.09784647	     -0.58542443	    -22.41063201	      2.16103975	     10.14578295	    -18.89639316
      1.80000000	      7.09130364	      0.57908532	      1.01427120	     13.98680035	      3.37305314	     -0.54774553	    -24.01114184	      2.34085766	     10.70503741	    -18.88000215
      1.81666667	      7.39405235	      0.58004763	      1.01146448	     13.71796107	      4.61315019	     -0.34624833	    -25.45857329	      2.00755662	     11.22928458	    -18.99146453
      1.83333333	      7.64252490	      0.58099422	      1.00908880	     13.81342307	      4.14650273	     -0.27700540	    -26.67115705	      1.33753644	     11.65022219	    -19.05548490
      1.85000000	      7.71968748	      0.58276015	      1.00719229	     14.51368627	      1.75624708	     -0.13021415	    -27.45768512	      0.13364802	     11.93749402	    -18.89540586
